<!-- image generated from https://maketext.io/ -->
<!-- font size: 32 -->
<svg width="250.43500976562498px" height="70.42625732421874px" xmlns="http://www.w3.org/2000/svg" viewBox="124.78249511718751 39.78687133789063 250.43500976562498 70.42625732421874" style="background: rgba(0, 0, 0, 0);" preserveAspectRatio="xMidYMid"><defs><filter id="editing-extrude-glow"><feFlood flood-color="#333333" result="flood-1"></feFlood><feMorphology operator="erode" radius="1" in="SourceAlpha" result="erode"></feMorphology><feComposite operator="in" in="flood-1" in2="erode" result="comp1"></feComposite><feConvolveMatrix order="3,3" divisor="1" in="comp1" result="convolve" kernelMatrix="0 0 0 1 1 1 0 0 0"></feConvolveMatrix><feOffset dx="-3" dy="0" in="convolve" result="extrude"></feOffset><feComposite operator="in" in="flood-1" in2="extrude" result="comp-extrude"></feComposite><feFlood flood-color="#000000" result="flood-2"></feFlood><feComposite operator="in" in="flood-2" in2="SourceAlpha" result="comp2"></feComposite><feMorphology operator="dilate" radius="1" in="comp2" result="dilate"></feMorphology><feOffset dx="-4.5" dy="0" in="dilate" result="offset"></feOffset><feGaussianBlur in="offset" stdDeviation="5.8" result="blur"></feGaussianBlur><feComponentTransfer in="blur" result="shadow"><feFuncA type="linear" slope="0.8" intercept="-0.2"></feFuncA></feComponentTransfer><feMerge><feMergeNode in="shadow"></feMergeNode><feMergeNode in="comp-extrude"></feMergeNode><feMergeNode in="SourceGraphic"></feMergeNode></feMerge></filter></defs><g filter="url(#editing-extrude-glow)"><g transform="translate(165.85875368118286, 86.75406265258789)"><path d="M1.02-7.81L1.02-7.81L1.02-7.81Q1.02-13.86 4.16-17.66L4.16-17.66L4.16-17.66Q7.49-21.79 13.28-21.79L13.28-21.79L13.28-21.79Q17.47-21.79 19.58-19.76L19.58-19.76L19.58-19.76Q21.70-17.73 21.70-13.44L21.70-13.44L21.70-13.44Q21.70-6.91 18.37-3.10L18.37-3.10L18.37-3.10Q15.07 0.64 9.54 0.64L9.54 0.64L9.54 0.64Q5.22 0.64 3.12-1.52L3.12-1.52L3.12-1.52Q1.02-3.68 1.02-7.81ZM9.44-14.43L9.44-14.43L9.44-14.43Q8-8.67 8-4.13L8-4.13L8-4.13Q8-3.04 8.37-2.34L8.37-2.34L8.37-2.34Q8.74-1.63 9.71-1.63L9.71-1.63L9.71-1.63Q10.69-1.63 11.30-2.10L11.30-2.10L11.30-2.10Q11.90-2.56 12.38-3.62L12.38-3.62L12.38-3.62Q13.15-5.34 13.87-9.01L13.87-9.01L13.87-9.01Q14.59-12.67 14.66-14.19L14.66-14.19L14.66-14.19Q14.72-15.71 14.72-16.86L14.72-16.86L14.72-16.86Q14.72-18.02 14.37-18.75L14.37-18.75L14.37-18.75Q14.02-19.49 13.07-19.49L13.07-19.49L13.07-19.49Q12.13-19.49 11.49-18.91L11.49-18.91L11.49-18.91Q10.30-17.82 9.44-14.43ZM33.34-16.96L33.34-16.96L33.34-16.96Q34.50-16.96 35.39-16.70L35.39-16.70L35.39-16.70Q35.42-16.83 35.49-17.18L35.49-17.18L35.65-18.18L35.65-18.18Q35.78-18.82 35.97-19.87L35.97-19.87L36.48-22.40L42.85-23.04L39.30-4.48L39.30-4.48Q39.26-4.29 39.26-3.97L39.26-3.97L39.26-3.46L39.26-3.46Q39.26-2.75 39.62-2.22L39.62-2.22L39.62-2.22Q39.97-1.70 40.54-1.70L40.54-1.70L40.54-1.70Q39.90-0.19 37.95 0.45L37.95 0.45L37.95 0.45Q37.28 0.64 36.34 0.64L36.34 0.64L36.34 0.64Q35.39 0.64 34.53 0.14L34.53 0.14L34.53 0.14Q33.66-0.35 33.41-1.18L33.41-1.18L33.41-1.18Q32.90-0.35 31.87 0.14L31.87 0.14L31.87 0.14Q30.85 0.64 29.36 0.64L29.36 0.64L29.36 0.64Q27.87 0.64 26.64 0.26L26.64 0.26L26.64 0.26Q25.41-0.13 24.64-0.96L24.64-0.96L24.64-0.96Q23.23-2.59 23.23-6.30L23.23-6.30L23.23-6.30Q23.23-11.10 26.05-14.02L26.05-14.02L26.05-14.02Q28.86-16.96 33.34-16.96ZM33.12-15.04L33.12-15.04L33.12-15.04Q31.94-15.04 31.30-13.76L31.30-13.76L31.30-13.76Q30.66-12.48 30-9.31L30-9.31L30-9.31Q29.34-6.14 29.34-3.30L29.34-3.30L29.34-3.30Q29.34-1.34 30.50-1.34L30.50-1.34L30.50-1.34Q31.52-1.34 32.24-2.37L32.24-2.37L32.24-2.37Q32.96-3.39 33.25-5.09L33.25-5.09L34.98-14.46L34.98-14.46Q34.30-15.04 33.12-15.04ZM56.22-5.41L56.22-5.41L56.22-5.41Q57.02-4.86 57.02-3.66L57.02-3.66L57.02-3.66Q57.02-2.46 56.42-1.70L56.42-1.70L56.42-1.70Q55.81-0.93 54.82-0.42L54.82-0.42L54.82-0.42Q52.77 0.64 50.56 0.64L50.56 0.64L50.56 0.64Q48.35 0.64 47.06 0.16L47.06 0.16L47.06 0.16Q45.76-0.32 44.90-1.22L44.90-1.22L44.90-1.22Q43.20-2.91 43.20-6.02L43.20-6.02L43.20-6.02Q43.20-10.85 45.82-13.79L45.82-13.79L45.82-13.79Q48.64-16.96 53.54-16.96L53.54-16.96L53.54-16.96Q56.58-16.96 58.08-15.68L58.08-15.68L58.08-15.68Q59.20-14.72 59.20-13.15L59.20-13.15L59.20-13.15Q59.20-7.52 49.47-7.52L49.47-7.52L49.47-7.52Q49.34-6.69 49.34-5.98L49.34-5.98L49.34-5.98Q49.34-4.51 50-3.95L50-3.95L50-3.95Q50.66-3.39 51.87-3.39L51.87-3.39L51.87-3.39Q53.09-3.39 54.38-3.95L54.38-3.95L54.38-3.95Q55.68-4.51 56.22-5.41ZM49.70-8.90L49.70-8.90L49.70-8.90Q51.97-8.90 53.28-10.30L53.28-10.30L53.28-10.30Q54.59-11.65 54.59-13.79L54.59-13.79L54.59-13.79Q54.59-14.53 54.32-14.93L54.32-14.93L54.32-14.93Q54.05-15.33 53.50-15.33L53.50-15.33L53.50-15.33Q52.96-15.33 52.50-15.12L52.50-15.12L52.50-15.12Q52.03-14.91 51.55-14.21L51.55-14.21L51.55-14.21Q50.37-12.61 49.70-8.90ZM62.62-15.58L62.62-15.58L62.62-15.58Q61.54-16.42 61.54-18.19L61.54-18.19L61.54-18.19Q61.54-19.97 62.70-20.90L62.70-20.90L62.70-20.90Q63.87-21.82 65.89-21.82L65.89-21.82L65.89-21.82Q67.17-21.82 70.21-21.38L70.21-21.38L72.38-21.06L72.38-21.06Q73.47-20.93 74.61-20.93L74.61-20.93L74.61-20.93Q75.74-20.93 76.51-21.41L76.51-21.41L76.51-21.41Q77.66-20.38 77.66-18.91L77.66-18.91L77.66-18.91Q77.66-17.44 76.35-16.38L76.35-16.38L76.35-16.38Q75.01-15.26 73.28-15.26L73.28-15.26L73.28-15.26Q72.45-15.26 71.10-15.49L71.10-15.49L71.10-15.49Q69.54-10.56 69.54-7.14L69.54-7.14L69.54-7.14Q69.54-3.71 71.26-1.92L71.26-1.92L71.26-1.92Q70.46-0.48 69.28 0.08L69.28 0.08L69.28 0.08Q68.10 0.64 66.32 0.64L66.32 0.64L66.32 0.64Q64.54 0.64 63.44-0.34L63.44-0.34L63.44-0.34Q62.34-1.31 62.34-3.33L62.34-3.33L62.34-3.33Q62.34-5.66 63.62-9.50L63.62-9.50L63.62-9.50Q64.90-13.31 66.82-16.22L66.82-16.22L66.82-16.22Q65.89-16.32 64.93-16.32L64.93-16.32L64.93-16.32Q62.94-16.32 62.62-15.58ZM82.14 0.64L82.14 0.64L82.14 0.64Q75.10 0.64 75.10-5.98L75.10-5.98L75.10-5.98Q75.10-10.69 77.70-13.73L77.70-13.73L77.70-13.73Q80.45-16.96 85.22-16.96L85.22-16.96L85.22-16.96Q88.67-16.96 90.43-15.36L90.43-15.36L90.43-15.36Q92.19-13.76 92.19-10.40L92.19-10.40L92.19-10.40Q92.19-5.28 89.44-2.30L89.44-2.30L89.44-2.30Q86.75 0.64 82.14 0.64ZM82.98-13.28L82.98-13.28L82.98-13.28Q82.59-12.42 82.29-11.12L82.29-11.12L82.29-11.12Q81.98-9.82 81.60-7.78L81.60-7.78L81.60-7.78Q81.22-5.73 81.22-3.20L81.22-3.20L81.22-3.20Q81.22-2.37 81.49-1.82L81.49-1.82L81.49-1.82Q81.76-1.28 82.50-1.28L82.50-1.28L82.50-1.28Q83.23-1.28 83.70-1.63L83.70-1.63L83.70-1.63Q84.16-1.98 84.51-2.82L84.51-2.82L84.51-2.82Q85.15-4.29 85.66-7.02L85.66-7.02L85.66-7.02Q86.18-9.76 86.22-10.94L86.22-10.94L86.22-10.94Q86.27-12.13 86.27-13.01L86.27-13.01L86.27-13.01Q86.27-13.89 86.02-14.46L86.02-14.46L86.02-14.46Q85.76-15.04 85.04-15.04L85.04-15.04L85.04-15.04Q84.32-15.04 83.84-14.59L83.84-14.59L83.84-14.59Q83.36-14.14 82.98-13.28ZM108.64-16.96L108.64-16.96L108.64-16.96Q106.05-16.96 104.16-17.82L104.16-17.82L103.14-12.64L109.31-12.64L109.31-12.64Q109.31-10.94 108.46-9.87L108.46-9.87L108.46-9.87Q107.62-8.80 106.08-8.80L106.08-8.80L106.08-8.80Q104.42-8.80 102.88-9.41L102.88-9.41L102.88-9.41Q102.56-9.54 102.53-9.57L102.53-9.57L100.70 0L93.73 0L97.79-21.12L112.06-21.12L112.06-21.12Q112.06-19.17 111.15-18.06L111.15-18.06L111.15-18.06Q110.24-16.96 108.64-16.96ZM118.02 0.64L118.02 0.64L118.02 0.64Q110.98 0.64 110.98-5.98L110.98-5.98L110.98-5.98Q110.98-10.69 113.57-13.73L113.57-13.73L113.57-13.73Q116.32-16.96 121.09-16.96L121.09-16.96L121.09-16.96Q124.54-16.96 126.30-15.36L126.30-15.36L126.30-15.36Q128.06-13.76 128.06-10.40L128.06-10.40L128.06-10.40Q128.06-5.28 125.31-2.30L125.31-2.30L125.31-2.30Q122.62 0.64 118.02 0.64ZM118.85-13.28L118.85-13.28L118.85-13.28Q118.46-12.42 118.16-11.12L118.16-11.12L118.16-11.12Q117.86-9.82 117.47-7.78L117.47-7.78L117.47-7.78Q117.09-5.73 117.09-3.20L117.09-3.20L117.09-3.20Q117.09-2.37 117.36-1.82L117.36-1.82L117.36-1.82Q117.63-1.28 118.37-1.28L118.37-1.28L118.37-1.28Q119.10-1.28 119.57-1.63L119.57-1.63L119.57-1.63Q120.03-1.98 120.38-2.82L120.38-2.82L120.38-2.82Q121.02-4.29 121.54-7.02L121.54-7.02L121.54-7.02Q122.05-9.76 122.10-10.94L122.10-10.94L122.10-10.94Q122.14-12.13 122.14-13.01L122.14-13.01L122.14-13.01Q122.14-13.89 121.89-14.46L121.89-14.46L121.89-14.46Q121.63-15.04 120.91-15.04L120.91-15.04L120.91-15.04Q120.19-15.04 119.71-14.59L119.71-14.59L119.71-14.59Q119.23-14.14 118.85-13.28ZM136.93 0.64L136.93 0.64L136.93 0.64Q129.89 0.64 129.89-5.98L129.89-5.98L129.89-5.98Q129.89-10.69 132.48-13.73L132.48-13.73L132.48-13.73Q135.23-16.96 140-16.96L140-16.96L140-16.96Q143.46-16.96 145.22-15.36L145.22-15.36L145.22-15.36Q146.98-13.76 146.98-10.40L146.98-10.40L146.98-10.40Q146.98-5.28 144.22-2.30L144.22-2.30L144.22-2.30Q141.54 0.64 136.93 0.64ZM137.76-13.28L137.76-13.28L137.76-13.28Q137.38-12.42 137.07-11.12L137.07-11.12L137.07-11.12Q136.77-9.82 136.38-7.78L136.38-7.78L136.38-7.78Q136-5.73 136-3.20L136-3.20L136-3.20Q136-2.37 136.27-1.82L136.27-1.82L136.27-1.82Q136.54-1.28 137.28-1.28L137.28-1.28L137.28-1.28Q138.02-1.28 138.48-1.63L138.48-1.63L138.48-1.63Q138.94-1.98 139.30-2.82L139.30-2.82L139.30-2.82Q139.94-4.29 140.45-7.02L140.45-7.02L140.45-7.02Q140.96-9.76 141.01-10.94L141.01-10.94L141.01-10.94Q141.06-12.13 141.06-13.01L141.06-13.01L141.06-13.01Q141.06-13.89 140.80-14.46L140.80-14.46L140.80-14.46Q140.54-15.04 139.82-15.04L139.82-15.04L139.82-15.04Q139.10-15.04 138.62-14.59L138.62-14.59L138.62-14.59Q138.14-14.14 137.76-13.28ZM158.94-16.96L158.94-16.96L158.94-16.96Q160.10-16.96 160.99-16.70L160.99-16.70L160.99-16.70Q161.02-16.83 161.09-17.18L161.09-17.18L161.25-18.18L161.25-18.18Q161.38-18.82 161.57-19.87L161.57-19.87L162.08-22.40L168.45-23.04L164.90-4.48L164.90-4.48Q164.86-4.29 164.86-3.97L164.86-3.97L164.86-3.46L164.86-3.46Q164.86-2.75 165.22-2.22L165.22-2.22L165.22-2.22Q165.57-1.70 166.14-1.70L166.14-1.70L166.14-1.70Q165.50-0.19 163.55 0.45L163.55 0.45L163.55 0.45Q162.88 0.64 161.94 0.64L161.94 0.64L161.94 0.64Q160.99 0.64 160.13 0.14L160.13 0.14L160.13 0.14Q159.26-0.35 159.01-1.18L159.01-1.18L159.01-1.18Q158.50-0.35 157.47 0.14L157.47 0.14L157.47 0.14Q156.45 0.64 154.96 0.64L154.96 0.64L154.96 0.64Q153.47 0.64 152.24 0.26L152.24 0.26L152.24 0.26Q151.01-0.13 150.24-0.96L150.24-0.96L150.24-0.96Q148.83-2.59 148.83-6.30L148.83-6.30L148.83-6.30Q148.83-11.10 151.65-14.02L151.65-14.02L151.65-14.02Q154.46-16.96 158.94-16.96ZM158.72-15.04L158.72-15.04L158.72-15.04Q157.54-15.04 156.90-13.76L156.90-13.76L156.90-13.76Q156.26-12.48 155.60-9.31L155.60-9.31L155.60-9.31Q154.94-6.14 154.94-3.30L154.94-3.30L154.94-3.30Q154.94-1.34 156.10-1.34L156.10-1.34L156.10-1.34Q157.12-1.34 157.84-2.37L157.84-2.37L157.84-2.37Q158.56-3.39 158.85-5.09L158.85-5.09L160.58-14.46L160.58-14.46Q159.90-15.04 158.72-15.04Z" fill="#eb6c6c"></path></g></g><style>text {
  font-size: 64px;
  font-family: Arial Black;
  dominant-baseline: central;
  text-anchor: middle;
}</style></svg>